<svg xmlns="http://www.w3.org/2000/svg"><symbol id="icons-cart-256" viewBox="0 0 256 256"><style>.st0{fill:#1c1c1c}.st1{fill:#fff}.st2{fill:none}.st2,.st3{stroke:#1c1c1c;stroke-width:22.6268;stroke-linecap:round;stroke-linejoin:round;stroke-miterlimit:10}</style><path d="M49.4 49.2h-28c-5.4 0-9.4-3.8-9.3-9 0-5 4-8.9 9.3-8.9h35c4.4 0 7.3 1.9 8.7 6.1 1.1 3.3 1.8 6.7 2.4 10.1.3 1.5.8 1.8 2.2 1.7h164.4c4.3 0 7.5 1.5 9.2 5.4.6 1.3.8 2.9.8 4.4v69.3c0 6.5-3.1 9.7-9.6 10.4-16.4 1.8-32.8 3.8-49.1 5.7-14.8 1.7-29.6 3.4-44.4 5.2-16.6 1.9-33.3 3.9-50.4 5.9 2.1 6.4 3 12.6-1.8 18.6h127.3c3.2 0 5.9.6 8 3.1 2.4 2.7 2.9 5.8 1.6 9.1-1.4 3.4-4 5.4-7.8 5.7-1.7.1-3.5 0-5.3.2 4.9 1.5 8.8 4.4 11.4 8.8 2.6 4.6 3 9.5 1.4 14.5-2.5 7.8-10.5 13.1-18.2 12.3-9.2-.9-15.7-7.4-16.6-16.6-.7-7.3 3.4-15.8 14.1-19H87c5.5 1.5 9.3 4.3 11.9 8.7 2.6 4.4 3 9.2 1.7 14.1-2.1 7.8-10.2 13.4-18.1 12.9-8.4-.6-15.6-7-16.7-14.8-1.3-9.8 3.3-17 14-20.9h-5.2c-6.3-.1-10.7-5.8-8.5-11.7 1.7-4.7 4.1-9.1 6.4-13.5 1-1.9 1.4-3.6.9-5.9-8-37.3-16-74.4-24-111.9z" class="st0"/></symbol><symbol id="icons-facebook-256" viewBox="0 0 256 256"><style>.st0{fill:#1c1c1c}.st1{fill:#fff}.st2{fill:none}.st2,.st3{stroke:#1c1c1c;stroke-width:22.6268;stroke-linecap:round;stroke-linejoin:round;stroke-miterlimit:10}</style><path d="M15.3 245.6V10.3h235.3v235.3H15.3zM250.2 128c-.1-66.3-53.5-117-116-117.5-66.8-.6-117.8 53-118.7 115.3-1 65.5 51.3 118.6 115.6 119.4 66.7.9 119.2-52.8 119.1-117.2z" class="st1"/><path d="M250.2 128c0 64.4-52.4 118.1-119.1 117.2-64.4-.8-116.6-53.9-115.6-119.4 1-62.3 52-115.9 118.7-115.3 62.5.5 116 51.2 116 117.5zm-136.3 35.6h.1V196c0 2.5.5 2.9 3.1 2.9h23c3.9 0 4.2-.3 4.2-4.1 0-20.8-.1-41.5-.1-62.3 0-3.2.8-4 4-3.9 4.1.1 8.1.1 12.2.1 2.3 0 3.1-.8 3.3-3.2.5-5.9 1.1-11.9 1.7-17.8.4-4.5.1-4.8-4.3-4.8-4.6 0-9.3 0-13.9.1-2.1 0-3.1-.7-3.1-2.6 0-3.8.1-7.6.3-11.4.2-3.6 2.2-5.9 5.9-6.2 4.1-.3 8.2-.2 12.3-.3 2.7 0 3.5-.8 3.5-3.5V61c0-2.8-1-3.7-3.7-3.6-7.5.2-14.9.3-22.4.6-11 .5-19.1 5.4-23.5 15.7-2 4.7-2.1 9.7-2.2 14.7-.2 4.2-.1 8.5-.2 12.7-.1 1.7-.6 2.2-2.3 2.2-3 .1-6.1.1-9.1.1-2.1 0-2.9.6-2.9 2.7v19.7c0 2.2.7 2.8 2.9 2.9h8.2c2.9 0 3.1.3 3.1 3.1-.1 10.5-.1 21.2-.1 31.8z" class="st0"/><path d="M113.9 163.6v-32c0-2.8-.3-3.1-3.1-3.1h-8.2c-2.2 0-2.9-.7-2.9-2.9v-19.7c0-2.1.8-2.7 2.9-2.7 3 0 6.1 0 9.1-.1 1.7 0 2.2-.5 2.3-2.2.2-4.2.1-8.5.2-12.7.2-5 .2-10 2.2-14.7 4.4-10.3 12.5-15.3 23.5-15.7 7.5-.3 14.9-.4 22.4-.6 2.8-.1 3.7.9 3.7 3.6v18c0 2.7-.8 3.4-3.5 3.5-4.1.1-8.2 0-12.3.3-3.6.3-5.7 2.5-5.9 6.2-.2 3.8-.2 7.6-.3 11.4 0 1.9.9 2.6 3.1 2.6 4.6 0 9.3 0 13.9-.1 4.5 0 4.8.4 4.3 4.8-.6 5.9-1.1 11.9-1.7 17.8-.2 2.3-1 3.2-3.3 3.2-4.1 0-8.1 0-12.2-.1-3.2-.1-4 .7-4 3.9 0 20.8.1 41.5.1 62.3 0 3.9-.3 4.1-4.2 4.1h-23c-2.6 0-3.1-.4-3.1-2.9v-32.4c.1.2.1.2 0 .2z" class="st1"/></symbol><symbol id="icons-google-256" viewBox="0 0 256 256"><style>.st0{fill:#1c1c1c}.st1{fill:#fff}.st2{fill:none}.st2,.st3{stroke:#1c1c1c;stroke-width:22.6268;stroke-linecap:round;stroke-linejoin:round;stroke-miterlimit:10}</style><path d="M129.7 8.4c66.3.1 120.1 53.9 119.8 120-.3 66.4-53.7 119.7-119.9 119.6-66.3 0-120-53.8-119.7-119.9C10.2 61.7 63.6 8.4 129.7 8.4zm-28.1 132.3c-.8 0-2-.1-3.1 0-11.4.9-21.6 4.6-29.4 13.3-11.4 12.6-8.7 27.3 6.2 35.3 1.4.8 2.9 1.5 4.4 2 8.8 3.4 17.9 4.6 27.2 4.1 9.1-.5 17.7-2.8 25.1-8.5 7.6-5.8 11.6-13.4 11.4-23.2-.3-10-4.6-17.7-12.4-23.6-3.1-2.4-6.1-5-8.8-7.8-2.6-2.7-2.4-5.1.3-7.7 1.8-1.8 3.8-3.3 5.7-4.9 8.4-7.5 11.8-16.8 9.1-27.8-1-3.9-2.9-7.6-4.1-10.7 1.9-1 4.1-1.9 6.1-3.1 1.7-1 3.4-2.1 4.8-3.5 1-1 2.2-2.6 2.1-3.8-.1-2.1-2.1-2.2-4-2.2h-36.1c-9 0-17.1 2.9-24.1 8.5-8.7 7.1-13.3 16-11.1 27.5 2.3 12.1 9.7 19.7 21.3 23.3 2.7.8 5.6 1.1 8.1 1.6.3 3.6.8 7.3 1.3 11.2zm65.8-8.7c0 5.7.1 11.1 0 16.5-.1 8.3-.1 7.9 8 7.8 3 0 3.9-1 3.9-4.1v-20.1h20.4c2.9 0 3.9-1 3.9-3.9v-4.6c0-2.3-1.1-3.5-3.4-3.5h-20.6c-.2-.5-.3-.7-.3-.9 0-5.1-.1-10.2 0-15.4.1-8.7.2-8.1-8.3-8-2.8 0-3.6.9-3.6 3.8v17.5c0 .9-.1 1.9-.1 3h-16.5c-8-.1-7.7-.3-7.7 7.6 0 3.6.8 4.4 4.5 4.4 6.4 0 12.9-.1 19.8-.1z" class="st0"/><path d="M101.6 140.7c-.5-3.9-1-7.6-1.5-11.4-2.5-.5-5.4-.8-8.1-1.6-11.6-3.6-19.1-11.3-21.3-23.3C68.6 93 73.1 84 81.8 77c7-5.7 15.1-8.5 24.1-8.5H142c1.8 0 3.8.2 4 2.2.1 1.3-1.1 2.8-2.1 3.8-1.4 1.4-3.1 2.5-4.8 3.5-2 1.2-4.1 2.1-6.1 3.1 1.2 3.2 3.1 6.8 4.1 10.7 2.7 11.1-.7 20.3-9.1 27.8-1.9 1.7-3.9 3.2-5.7 4.9-2.7 2.7-2.9 5-.3 7.7 2.7 2.8 5.7 5.5 8.8 7.8 7.8 6 12.1 13.6 12.4 23.6.3 9.8-3.8 17.4-11.4 23.2-7.4 5.7-16 8-25.1 8.5-9.3.5-18.5-.7-27.2-4.1-1.5-.6-3-1.3-4.4-2-14.9-8-17.5-22.8-6.2-35.3 7.8-8.7 18-12.4 29.4-13.3 1.3 0 2.5.1 3.3.1zm2.6 43c5.5-.3 11.1-.7 16.1-3.5 6.5-3.6 9.7-12.7 6-18.5-3.3-5.2-8.3-9-14.1-10.7-8.4-2.6-16.6-.8-23.8 4.2-9.3 6.4-9.2 17.3-.1 24 4.8 3.3 10.2 4.5 15.9 4.5zm15.1-79.8c-.4-9.1-5-18.1-11.7-22.2-7.2-4.4-14.5-1.7-17.2 6.2-1.4 4-1.4 8.1-.5 12.2 1.6 7.2 4.8 13.3 11.3 17.3 6.5 4 13.3 1.8 16.1-5.3 1-2.5 1.4-5.4 2-8.2z" class="st1"/><path d="M167.4 132h-19.8c-3.7 0-4.5-.8-4.5-4.4-.1-7.9-.4-7.7 7.7-7.6h16.5c.1-1.1.1-2 .1-3V99.5c0-2.9.8-3.8 3.6-3.8 8.5-.1 8.4-.7 8.3 8-.1 5.1 0 10.2 0 15.4 0 .2.1.3.3.9h20.6c2.3 0 3.5 1.2 3.4 3.5v4.6c0 2.9-1 3.9-3.9 3.9h-20.4v20.1c0 3.1-.9 4.1-3.9 4.1-8.2.1-8.1.5-8-7.8V132z" class="st1"/><path d="M104.2 183.7c-5.7-.1-11.1-1.2-15.8-4.6-9.2-6.6-9.2-17.6.1-24 7.3-5 15.5-6.8 23.8-4.2 5.7 1.8 10.8 5.5 14.1 10.7 3.6 5.8.5 14.9-6 18.5-5.1 3-10.6 3.3-16.2 3.6zm15.1-79.8c-.7 2.8-1 5.7-2.1 8.3-2.9 7-9.6 9.3-16.1 5.3-6.5-3.9-9.7-10.1-11.3-17.3-.8-4.1-.8-8.2.6-12.2 2.7-8 10-10.6 17.2-6.2 6.7 4 11.3 13 11.7 22.1z" class="st0"/></symbol><symbol id="icons-search-256" viewBox="0 0 256 256"><style>.st0{fill:#1c1c1c}.st1{fill:#fff}.st2{fill:none}.st2,.st3{stroke:#1c1c1c;stroke-width:22.6268;stroke-linecap:round;stroke-linejoin:round;stroke-miterlimit:10}</style><circle cx="166.3" cy="98.7" r="70.4" class="st2"/><path d="M113.5 146.2l-90.6 90.6" class="st3"/></symbol><symbol id="icons-twitter-256" viewBox="0 0 256 256"><style>.st0{fill:#1c1c1c}.st1{fill:#fff}.st2{fill:none}.st2,.st3{stroke:#1c1c1c;stroke-width:22.6268;stroke-linecap:round;stroke-linejoin:round;stroke-miterlimit:10}</style><path d="M132.9 246.9c-64.3 0-116.1-52.1-115.9-117.2.2-63.5 52.9-115.8 117.4-115 63.5.7 115.3 53 114.8 117.5-.3 62.8-52.6 114.7-116.3 114.7zM70 172.7c.7.4 1.4.9 2.1 1.3 21.9 11.7 44.7 13.4 67.4 3.4 29.4-13.1 43.6-37.1 45.3-68.8.2-3.2 1-5.2 3.4-7.2 3.4-2.9 6.4-6.4 9.5-9.7l-.6-.6c-1.4.5-2.8 1-4.3 1.5-1.6.5-3.1.9-4.7 1.3-1.4.3-2.8.4-4.2.7 4.7-3.8 8.2-8.1 10.2-13.6-4.8 1.7-9.4 3.3-14 5-1.7.6-2.9.1-4.3-1.1-7.8-6.7-16.8-8.7-26.6-5.2-9.8 3.5-15.7 10.8-17.3 21.1-.5 3.2-.1 6.6-.1 10.1-22.3-1.6-40.3-10.9-54.8-27.7-3.4 6.3-4.3 12.6-2.8 19.2s5.3 11.7 10.6 15.8c-.1.2-.3.4-.4.6-3.6-1-7.3-1.9-11.1-2.9.2 6.1 2.1 11.5 5.9 16.2 3.8 4.8 8.8 7.8 14.7 9.4 0 .2-.1.5-.1.7H83.2l-.6.9c2 3 3.7 6.2 6.1 8.9 4.8 5.5 11.2 8.1 19.1 8.8-11.7 8.6-24.1 12-37.8 11.9z" class="st0"/><path d="M70 172.7c13.7.1 26.1-3.3 37.7-12-7.9-.7-14.3-3.3-19.1-8.8-2.3-2.7-4.1-5.9-6.1-8.9l.6-.9h10.6c0-.2.1-.5.1-.7-5.9-1.6-10.9-4.6-14.7-9.4-3.8-4.7-5.6-10.1-5.9-16.2 3.9 1 7.5 2 11.1 2.9.1-.2.3-.4.4-.6-5.3-4.2-9.1-9.2-10.6-15.8-1.5-6.6-.7-12.9 2.8-19.2 14.5 16.8 32.6 26.1 54.8 27.7 0-3.5-.4-6.9.1-10.1 1.6-10.4 7.5-17.6 17.3-21.1 9.7-3.5 18.7-1.5 26.6 5.2 1.4 1.2 2.6 1.7 4.3 1.1 4.6-1.7 9.2-3.3 14-5-1.9 5.5-5.5 9.7-10.2 13.6 1.4-.2 2.8-.4 4.2-.7 1.6-.3 3.2-.8 4.7-1.3 1.4-.4 2.9-1 4.3-1.5l.6.6c-3.1 3.2-6.1 6.7-9.5 9.7-2.4 2-3.2 4.1-3.4 7.2-1.7 31.7-15.9 55.7-45.3 68.8-22.6 10-45.4 8.3-67.4-3.4-.7-.3-1.3-.8-2-1.2z" class="st1"/></symbol></svg>