<svg xmlns="http://www.w3.org/2000/svg"><symbol id="drop-down" viewBox="0 0 256 256"><path fill="none" stroke="#1c1c1c" stroke-linecap="round" stroke-miterlimit="10" stroke-width="26" d="M33 59l95 139L232 59"/></symbol><symbol id="cart-256" viewBox="0 0 256 256"><path fill="#1c1c1c" d="M49.4 49.2h-28c-5.4 0-9.4-3.8-9.3-9s3.9-8.8 9.2-8.8h35c4.4 0 7.3 1.9 8.7 6a70.3 70.3 0 0 1 2.3 10.1c.3 1.5.9 1.8 2.2 1.8H234c4.2 0 7.4 1.5 9.2 5.4a10.8 10.8 0 0 1 .8 4.3v69.3c0 6.5-3.1 9.7-9.6 10.4l-49.1 5.7-44.4 5.2-50.5 5.9c2.1 6.4 3 12.6-1.8 18.6h127.3c3.1 0 5.9.6 8 3.1a8.3 8.3 0 0 1 1.6 9.1 8.5 8.5 0 0 1-7.7 5.7c-1.8.1-3.5 0-5.3.2a19 19 0 0 1 11.4 8.8 17.3 17.3 0 0 1 1.4 14.4c-2.5 7.8-10.5 13.1-18.3 12.3s-15.7-7.4-16.5-16.6c-.7-7.2 3.4-15.7 14.1-18.9H86.9c5.5 1.5 9.4 4.3 12 8.6a17.9 17.9 0 0 1-16.4 26.9c-8.4-.6-15.6-7-16.7-14.8-1.3-9.8 3.3-17 14-20.9h-5.2c-6.3-.1-10.6-5.8-8.5-11.7a138.5 138.5 0 0 1 6.4-13.5 7.8 7.8 0 0 0 .9-5.8c-8-37.2-16-74.3-24-111.8z"/></symbol><symbol id="facebook-256" viewBox="0 0 256 256"><path fill="#1c1c1c" d="M245.2 126.4a117.4 117.4 0 1 1-116-117.6 117.2 117.2 0 0 1 116 117.6zM108.9 162h.1c0 10.8 0 21.6.1 32.4 0 2.5.4 2.9 3 2.9h23.1c3.9 0 4.1-.2 4.1-4.1q0-31.2-.1-62.3c0-3.3.8-4 4-3.9h12.2c2.3 0 3.1-.9 3.3-3.2.6-5.9 1.1-11.9 1.7-17.8.4-4.4.1-4.8-4.3-4.8h-13.9c-2.2.1-3.1-.7-3.1-2.6 0-3.8 0-7.6.3-11.4s2.2-5.9 5.8-6.2 8.2-.2 12.3-.3 3.6-.7 3.6-3.4v-18c0-2.7-1-3.7-3.8-3.6l-22.4.6c-11 .5-19 5.5-23.5 15.7-2 4.7-2 9.8-2.2 14.7s-.1 8.5-.3 12.8c0 1.7-.6 2.1-2.3 2.2h-9.1c-2.1 0-2.8.6-2.8 2.7v19.7c0 2.2.7 2.8 2.9 2.9h8.2c2.9 0 3.1.2 3.1 3z"/><path fill="#fff" d="M108.9 162v-32c0-2.8-.2-3-3.1-3h-8.2c-2.2-.1-2.9-.7-2.9-2.9v-19.7c0-2.1.7-2.7 2.8-2.7h9.1c1.7-.1 2.3-.5 2.3-2.2.2-4.3.1-8.5.3-12.8s.2-10 2.2-14.7c4.5-10.2 12.5-15.2 23.5-15.7l22.4-.6c2.8-.1 3.8.9 3.8 3.6v18.1c0 2.7-.8 3.4-3.6 3.4s-8.2 0-12.3.3-5.6 2.6-5.8 6.2-.3 7.6-.3 11.4c0 1.9.9 2.7 3.1 2.6h13.9c4.4 0 4.7.4 4.3 4.8-.6 5.9-1.1 11.9-1.7 17.8-.2 2.3-1 3.2-3.3 3.2h-12.2c-3.2-.1-4 .6-4 3.9q.2 31 .1 62.3c0 3.9-.2 4.1-4.1 4.1h-23.1c-2.6 0-3-.4-3-2.9-.1-10.8-.1-21.6-.1-32.4z"/></symbol><symbol id="google-256" viewBox="0 0 256 256"><path fill="#1c1c1c" d="M129.7 8.4c66.4.1 120.1 54 119.8 120.1s-53.7 119.7-119.9 119.6-120-53.9-119.7-120A119.8 119.8 0 0 1 129.7 8.4zm-28.1 132.3h-3.1c-11.4.9-21.6 4.6-29.5 13.3-11.3 12.6-8.7 27.3 6.2 35.3a35.5 35.5 0 0 0 4.4 2.1 64.9 64.9 0 0 0 27.2 4.1c9.1-.5 17.8-2.8 25.1-8.5s11.6-13.4 11.4-23.2-4.6-17.7-12.4-23.6a82.6 82.6 0 0 1-8.8-7.9c-2.6-2.7-2.4-5.1.3-7.7s3.8-3.3 5.7-5c8.4-7.5 11.8-16.7 9.1-27.8-.9-3.9-2.9-7.6-4.1-10.8 1.9-.9 4.1-1.8 6.1-3a20.6 20.6 0 0 0 4.7-3.5c1.1-1 2.2-2.6 2.1-3.8s-2.1-2.3-3.9-2.3H106A37.3 37.3 0 0 0 81.8 77c-8.7 7-13.2 16-11.1 27.4s9.7 19.8 21.3 23.3c2.7.9 5.6 1.1 8.1 1.6zm65.8-8.7v16.5c-.1 8.3-.2 7.9 8 7.8 3 0 3.9-.9 3.9-4.1V132h20.4c2.9 0 3.8-.9 3.9-3.8v-4.6c0-2.3-1.1-3.5-3.4-3.5h-20.6a2.9 2.9 0 0 1-.3-.9v-15.3c.1-8.8.2-8.1-8.3-8.1-2.8 0-3.6.9-3.6 3.8-.1 5.8 0 11.7 0 17.5 0 1-.1 1.9-.2 3h-16.5c-8-.1-7.7-.3-7.6 7.6 0 3.6.8 4.3 4.5 4.3z"/><path fill="#fff" d="M101.6 140.7l-1.5-11.4c-2.5-.5-5.4-.7-8.1-1.6-11.6-3.5-19-11.2-21.3-23.3S73.1 84 81.8 77a37.3 37.3 0 0 1 24.2-8.6h36.1c1.8 0 3.8.2 3.9 2.3s-1 2.8-2.1 3.8a20.6 20.6 0 0 1-4.7 3.5c-2 1.2-4.2 2.1-6.1 3 1.2 3.2 3.2 6.9 4.1 10.8 2.7 11.1-.7 20.3-9.1 27.8-1.9 1.7-3.9 3.2-5.7 5s-2.9 5-.3 7.7a82.6 82.6 0 0 0 8.8 7.9c7.8 5.9 12.1 13.6 12.4 23.6s-3.8 17.3-11.4 23.2-16 8-25.1 8.5a64.9 64.9 0 0 1-27.2-4.1 35.5 35.5 0 0 1-4.4-2.1c-14.9-8-17.5-22.7-6.2-35.3 7.9-8.7 18.1-12.4 29.5-13.3zm2.6 43c5.6-.3 11.1-.6 16.1-3.4 6.6-3.7 9.7-12.7 6.1-18.6a25.9 25.9 0 0 0-14.1-10.7c-8.4-2.6-16.6-.8-23.8 4.2-9.3 6.4-9.2 17.3-.1 23.9 4.7 3.4 10.1 4.6 15.8 4.6zm15.1-79.8c-.4-9.1-5-18.1-11.7-22.2S93.1 80 90.4 88a23 23 0 0 0-.6 12.2c1.6 7.2 4.9 13.3 11.3 17.3s13.3 1.7 16.2-5.3a55.8 55.8 0 0 0 2-8.3z"/><path fill="#fff" d="M167.4 132h-19.8c-3.7 0-4.5-.7-4.5-4.3-.1-7.9-.4-7.7 7.6-7.6h16.5c.1-1.1.2-2 .2-3 0-5.8-.1-11.7 0-17.5 0-2.9.8-3.8 3.6-3.8 8.5 0 8.4-.7 8.3 8.1v15.3a2.9 2.9 0 0 0 .3.9h20.6c2.3 0 3.4 1.2 3.4 3.5v4.6c-.1 2.9-1 3.8-3.9 3.8h-20.4v20.2c0 3.2-.9 4.1-3.9 4.1-8.2.1-8.1.5-8-7.8z"/><path fill="#1c1c1c" d="M104.2 183.7c-5.7 0-11.1-1.2-15.8-4.6-9.1-6.6-9.2-17.5.1-23.9 7.2-5 15.4-6.8 23.8-4.2a25.9 25.9 0 0 1 14.1 10.7c3.6 5.9.5 14.9-6.1 18.6-5 2.8-10.5 3.1-16.1 3.4zm15.1-79.8a55.8 55.8 0 0 1-2 8.3c-2.9 7-9.7 9.2-16.2 5.3s-9.7-10.1-11.3-17.3a23 23 0 0 1 .6-12.2c2.7-8 10-10.6 17.2-6.3s11.3 13.1 11.7 22.2z"/></symbol><symbol id="search-256" viewBox="0 0 256 256"><circle cx="165.3" cy="98.7" r="70.4" fill="none" stroke="#1c1c1c" stroke-linecap="round" stroke-linejoin="round" stroke-width="22.63"/><path stroke="#1c1c1c" stroke-linecap="round" stroke-linejoin="round" stroke-width="22.63" d="M112.5 146.2l-90.6 90.6"/></symbol><symbol id="twitter-256" viewBox="0 0 256 256"><path fill="#1c1c1c" d="M132.9 246.9c-64.3 0-116.1-52.2-115.9-117.2.2-63.5 52.9-115.8 117.4-115s115.3 53 114.9 117.4-52.7 114.8-116.4 114.8zM70 172.7l2 1.3c22 11.7 44.8 13.4 67.4 3.4 29.4-13.1 43.6-37.1 45.3-68.8.2-3.1 1-5.2 3.4-7.2a124.4 124.4 0 0 0 9.5-9.7l-.5-.6-4.3 1.5a40.5 40.5 0 0 1-4.7 1.2l-4.2.7c4.7-3.8 8.2-8.1 10.1-13.6l-13.9 5c-1.8.6-2.9.1-4.3-1.1-7.8-6.8-16.8-8.7-26.6-5.2s-15.7 10.8-17.3 21.1c-.5 3.2-.1 6.6-.1 10.1-22.2-1.6-40.3-10.9-54.8-27.7a27.1 27.1 0 0 0-2.8 19.2c1.5 6.6 5.4 11.6 10.6 15.8l-.4.7-11.1-3a26.9 26.9 0 0 0 5.8 16.2 27.2 27.2 0 0 0 14.7 9.4v.7H83.1l-.6.9c2 3 3.7 6.2 6.1 8.9 4.7 5.5 11.1 8.1 19 8.8-11.5 8.7-23.9 12.1-37.6 12z"/><path fill="#fff" d="M70 172.7c13.7.1 26.1-3.3 37.6-12-7.9-.7-14.3-3.3-19-8.8-2.4-2.7-4.1-5.9-6.1-8.9l.6-.9h10.6v-.7a27.2 27.2 0 0 1-14.6-9.4 26.9 26.9 0 0 1-5.8-16.2l11.1 3 .4-.7c-5.2-4.2-9.1-9.2-10.6-15.8A27.1 27.1 0 0 1 77 83.1c14.5 16.8 32.6 26.1 54.8 27.7 0-3.5-.4-6.9.1-10.1 1.6-10.3 7.5-17.6 17.3-21.1s18.8-1.6 26.6 5.2c1.4 1.2 2.5 1.7 4.3 1.1l13.9-5c-1.9 5.5-5.4 9.8-10.1 13.6l4.2-.7a40.5 40.5 0 0 0 4.7-1.2l4.3-1.5.5.6a124.4 124.4 0 0 1-9.5 9.7c-2.4 2-3.2 4.1-3.4 7.2-1.7 31.7-15.9 55.7-45.3 68.8-22.6 10-45.4 8.3-67.4-3.4z"/></symbol></svg>