<svg xmlns="http://www.w3.org/2000/svg"><symbol id="facebook-256" viewBox="0 0 256 256"><path fill="#fff" d="M15.3 245.6V10.3h235.2v235.3zM250.2 128a117.3 117.3 0 0 0-116-117.5c-66.8-.6-117.8 53-118.7 115.3-1 65.5 51.3 118.6 115.6 119.4A117.3 117.3 0 0 0 250.2 128z"/><path fill="#1c1c1c" d="M250.2 128a117.3 117.3 0 0 1-119.1 117.2c-64.4-.8-116.6-53.9-115.6-119.4 1-62.3 52-115.9 118.7-115.3a117.3 117.3 0 0 1 116 117.5zm-136.3 35.6h.1V196c0 2.5.5 2.9 3.1 2.9h23c3.9 0 4.2-.3 4.2-4.1q0-31.2-.1-62.3c0-3.2.8-4 4-3.9h12.2c2.3 0 3.1-.8 3.3-3.2q.8-8.9 1.7-17.8c.4-4.5.1-4.8-4.3-4.8h-13.9c-2.1 0-3.1-.7-3.1-2.6 0-3.8.1-7.6.3-11.4s2.2-5.9 5.9-6.2 8.2-.2 12.3-.3 3.5-.8 3.5-3.5v-18c0-2.8-1-3.7-3.7-3.6-7.5.2-14.9.3-22.4.6-11 .5-19.1 5.4-23.5 15.7-2 4.7-2.1 9.7-2.2 14.7s-.1 8.5-.2 12.7c-.1 1.7-.6 2.2-2.3 2.2h-9.1c-2.1 0-2.9.6-2.9 2.7v19.7c0 2.2.7 2.8 2.9 2.9h8.2c2.9 0 3.1.3 3.1 3.1q-.1 16.1-.1 32.1z"/><path fill="#fff" d="M113.9 163.6v-32c0-2.8-.3-3.1-3.1-3.1h-8.2c-2.2 0-2.9-.7-2.9-2.9v-19.7c0-2.1.8-2.7 2.9-2.7h9.1c1.7 0 2.2-.5 2.3-2.2.2-4.2.1-8.5.2-12.7s.2-10 2.2-14.7c4.4-10.3 12.5-15.3 23.5-15.7 7.5-.3 14.9-.4 22.4-.6 2.8-.1 3.7.9 3.7 3.6v18c0 2.7-.8 3.4-3.5 3.5s-8.2 0-12.3.3-5.7 2.5-5.9 6.2-.2 7.6-.3 11.4c0 1.9.9 2.6 3.1 2.6H161c4.5 0 4.8.4 4.3 4.8s-1.1 11.9-1.7 17.8c-.2 2.3-1 3.2-3.3 3.2h-12.1c-3.2-.1-4 .7-4 3.9q0 31.2.1 62.3c0 3.9-.3 4.1-4.2 4.1h-23c-2.6 0-3.1-.4-3.1-2.9v-32.4z"/></symbol><symbol id="cart-256" viewBox="0 0 256 256"><path fill="#1c1c1c" d="M49.4 49.2h-28c-5.4 0-9.4-3.8-9.3-9s4-8.9 9.3-8.9h35c4.4 0 7.3 1.9 8.7 6.1a73.4 73.4 0 0 1 2.4 10.1c.3 1.5.8 1.8 2.2 1.7H234c4.3 0 7.5 1.5 9.2 5.4a11 11 0 0 1 .8 4.4q.1 34.7 0 69.3c0 6.5-3.1 9.7-9.6 10.4l-49.1 5.7-44.4 5.2-50.4 5.9c2.1 6.4 3 12.6-1.8 18.6h127.2c3.2 0 5.9.6 8 3.1a8.4 8.4 0 0 1 1.6 9.1 8.6 8.6 0 0 1-7.8 5.7l-5.3.2a19.1 19.1 0 0 1 11.4 8.8 17.4 17.4 0 0 1 1.4 14.5c-2.5 7.8-10.5 13.1-18.2 12.3s-15.7-7.4-16.6-16.6c-.7-7.3 3.4-15.8 14.1-19H86.9c5.5 1.5 9.3 4.3 11.9 8.7a17.5 17.5 0 0 1 1.7 14.1 18.1 18.1 0 0 1-18.1 12.9c-8.4-.6-15.6-7-16.7-14.8-1.3-9.8 3.3-17 14-20.9h-5.1c-6.3-.1-10.7-5.8-8.5-11.7a119.5 119.5 0 0 1 6.4-13.5 8 8 0 0 0 .9-5.9c-8-37.3-16-74.4-24-111.9z"/></symbol><symbol id="google-256" viewBox="0 0 256 256"><path fill="#1c1c1c" d="M129.7 8.4c66.3.1 120.1 53.9 119.8 120a119.7 119.7 0 0 1-119.9 119.7c-66.3-.1-120-53.9-119.7-120A119.7 119.7 0 0 1 129.7 8.4zm-28.1 132.3h-3.1c-11.4.9-21.6 4.6-29.4 13.3-11.4 12.6-8.7 27.3 6.2 35.3a39.8 39.8 0 0 0 4.4 2 64.4 64.4 0 0 0 27.2 4.1c9.1-.5 17.7-2.8 25.1-8.5s11.6-13.4 11.4-23.2-4.6-17.7-12.4-23.6a77 77 0 0 1-8.8-7.8c-2.6-2.7-2.4-5.1.3-7.7s3.8-3.3 5.7-4.9c8.4-7.5 11.8-16.8 9.1-27.8-1-3.9-2.9-7.6-4.1-10.7 1.9-1 4.1-1.9 6.1-3.1a23.4 23.4 0 0 0 4.8-3.5c1-1 2.2-2.6 2.1-3.8s-2.1-2.2-4-2.2H106A37.5 37.5 0 0 0 81.8 77c-8.7 7-13.2 16-11.1 27.4s9.7 19.7 21.3 23.3a74.1 74.1 0 0 0 8.1 1.6zm65.8-8.6c0 5.7.1 11.1 0 16.5-.1 8.3-.1 7.9 8 7.8 3 0 3.9-1 3.9-4.1v-20.1h20.4c2.9 0 3.9-1 3.9-3.9v-4.6c0-1.5-1.1-3.5-3.4-3.5h-20.6a4.6 4.6 0 0 1-.3-.9c0-5.1-.1-10.2 0-15.4.1-8.7.2-8.1-8.3-8-2.8 0-3.6.9-3.6 3.8v17.5c0 .9-.1 1.9-.1 3h-16.6c-8-.1-7.7-.3-7.7 7.6 0 3.6.8 4.4 4.5 4.4z"/><path fill="#fff" d="M101.6 140.7l-1.5-11.4a74.1 74.1 0 0 1-8.1-1.6c-11.6-3.6-19.1-11.3-21.3-23.3S73.1 84 81.8 77a37.5 37.5 0 0 1 24.2-8.6h36.1c1.8 0 3.8.2 4 2.2s-1.1 2.8-2.1 3.8a23.4 23.4 0 0 1-4.8 3.5c-2 1.2-4.1 2.1-6.1 3.1 1.2 3.2 3.1 6.8 4.1 10.7 2.7 11.1-.7 20.3-9.1 27.8-1.9 1.7-3.9 3.2-5.7 4.9s-2.9 5-.3 7.7a77 77 0 0 0 8.8 7.8c7.8 6 12.1 13.6 12.4 23.6s-3.8 17.4-11.4 23.2-16 8-25.1 8.5a64.4 64.4 0 0 1-27.2-4.1 39.8 39.8 0 0 1-4.4-2c-14.9-8-17.5-22.8-6.2-35.3 7.8-8.7 18-12.4 29.4-13.3zm2.7 43c5.5-.3 11.1-.7 16.1-3.5s9.7-12.7 6-18.5a25.5 25.5 0 0 0-14.1-10.7c-8.4-2.6-16.6-.8-23.8 4.2-9.3 6.4-9.2 17.3-.1 24 4.7 3.3 10.1 4.5 15.8 4.5zm15.1-79.8c-.4-9.1-5-18.1-11.7-22.2S93.1 80 90.4 88a22.5 22.5 0 0 0-.5 12.2c1.6 7.2 4.8 13.3 11.3 17.3s13.3 1.8 16.1-5.3c1-2.6 1.4-5.5 2-8.3z"/><path fill="#fff" d="M167.4 132h-19.8c-3.7 0-4.5-.8-4.5-4.4-.1-7.9-.4-7.7 7.7-7.6h16.5c.1-1.1.1-2 .1-3V99.5c0-2.9.8-3.8 3.6-3.8 8.5-.1 8.4-.7 8.3 8-.1 5.1 0 10.2 0 15.4a4.6 4.6 0 0 0 .3.9h20.5c2.3 0 3.5 1.2 3.4 3.5s0 3.1 0 4.6-1 3.9-3.9 3.9h-20.3v20.1c0 3.1-.9 4.1-3.9 4.1-8.2.1-8.1.5-8-7.8V132z"/><path fill="#1c1c1c" d="M104.2 183.7c-5.7-.1-11.1-1.2-15.8-4.6-9.2-6.6-9.2-17.6.1-24 7.3-5 15.5-6.8 23.8-4.2a25.5 25.5 0 0 1 14.1 10.7c3.6 5.8.5 14.9-6 18.5s-10.6 3.3-16.2 3.6zm15.1-79.8c-.7 2.8-1 5.7-2.1 8.3-2.9 7-9.6 9.3-16.1 5.3s-9.7-10.1-11.3-17.3a22.5 22.5 0 0 1 .6-12.2c2.7-8 10-10.6 17.2-6.2s11.3 13 11.7 22.1z"/></symbol><symbol id="search-256" viewBox="0 0 256 256"><circle cx="165.3" cy="98.7" r="70.4" fill="none" stroke="#1c1c1c" stroke-linecap="round" stroke-linejoin="round" stroke-width="22.63"/><path stroke="#1c1c1c" stroke-linecap="round" stroke-linejoin="round" stroke-width="22.63" d="M112.5 146.2l-90.6 90.6"/></symbol><symbol id="twitter-256" viewBox="0 0 256 256"><path fill="#1c1c1c" d="M132.9 246.9c-64.3 0-116.1-52.2-115.9-117.2s52.9-115.8 117.4-115 115.3 53 114.8 117.5c-.3 62.8-52.6 114.7-116.3 114.7zM70 172.7l2 1.3c21.9 11.7 44.7 13.4 67.4 3.4 29.4-13.1 43.6-37.1 45.3-68.8.2-3.2 1-5.2 3.4-7.2s6.4-6.4 9.5-9.7l-.6-.6-4.3 1.5-4.7 1.3-4.2.7c4.7-3.8 8.2-8.1 10.2-13.6l-14 5c-1.7.6-2.9.1-4.3-1.1-7.7-6.9-16.7-8.8-26.5-5.3s-15.7 10.8-17.3 21.1c-.5 3.2-.1 6.6-.1 10.1-22.2-1.6-40.3-10.9-54.8-27.7a26.4 26.4 0 0 0-2.8 19.2c1.5 6.6 5.3 11.7 10.6 15.8l-.4.6-11.1-2.9a26.9 26.9 0 0 0 5.8 16.2 27.3 27.3 0 0 0 14.7 9.4v.7H83.1l-.6.9c2 3 3.7 6.2 6.1 8.9 4.8 5.5 11.2 8.1 19.1 8.8-11.6 8.7-24 12.1-37.7 12z"/><path fill="#fff" d="M70 172.7c13.7.1 26.1-3.3 37.7-12-7.9-.7-14.3-3.3-19.1-8.8-2.3-2.7-4.1-5.9-6.1-8.9l.6-.9h10.6v-.7a27.3 27.3 0 0 1-14.6-9.4 26.9 26.9 0 0 1-5.9-16.2l11.1 2.9.4-.6c-5.3-4.2-9.1-9.2-10.6-15.8A26.4 26.4 0 0 1 77 83.1c14.5 16.8 32.6 26.1 54.8 27.7 0-3.5-.4-6.9.1-10.1 1.6-10.4 7.5-17.6 17.3-21.1s18.8-1.6 26.6 5.2c1.4 1.2 2.6 1.7 4.3 1.1l14-5c-1.9 5.5-5.5 9.7-10.2 13.6l4.2-.7 4.7-1.3 4.3-1.5.6.6c-3.1 3.2-6.1 6.7-9.5 9.7s-3.2 4.1-3.4 7.2c-1.7 31.7-15.9 55.7-45.3 68.8-22.6 10-45.4 8.3-67.4-3.4z"/></symbol></svg>