<svg xmlns="http://www.w3.org/2000/svg" id="Layer_1" viewBox="0 0 256 256" width="256" height="256"><defs><style>.cls-1{font-size:39.45px;fill:#231f20;font-family:SnubnoseDEMO-Regular,Snubnose DEMO}.cls-2{fill:#fff}.cls-3{fill:#ffde17}</style></defs><text class="cls-1" transform="rotate(-56.55 101.034 20.367)">w</text><text class="cls-1" transform="rotate(-42.72 109.41 -26.593)">h</text><text class="cls-1" transform="rotate(-32.61 124.188 -76.232)">a</text><text class="cls-1" transform="rotate(-22.3 152.518 -171.464)">t</text><text class="cls-1" transform="matrix(.99 -.1 .1 .99 104.69 35.55)">t</text><text class="cls-1" transform="rotate(4.5 -369.611 1589.738)">h</text><text class="cls-1" transform="rotate(13.56 -79.17 614.795)">e</text><text class="cls-1" transform="rotate(28.71 -1.18 346.947)">d</text><text class="cls-1" transform="rotate(39.67 19.11 278.805)">u</text><text class="cls-1" transform="rotate(50.2 28.61 244.637)">c</text><text class="cls-1" transform="rotate(60.7 36.771 219.904)">k</text><circle cx="159.17" cy="116.8" r="31.75" class="cls-2"/><path d="M137.39 127.86s-18.46 14.16-60.31-7c0 0-13.42-6.53-23.19-28.77-.39 1-9.38 108.57 46 110.24 0 0 59.71 7.37 73.11-8.24 0 0 33.72-28.26-5.33-60.34M190.92 114s13.09 0 17.88-5.13c0 0-7.25 14-18.34 13.31 0 0 14.24-.31 18.34-3.73 0 0-2.9 11-21.13 12.37" class="cls-2"/><circle cx="123.09" cy="137.58" r="101.18" class="cls-3"/><circle cx="157.78" cy="119.59" r="31.75" class="cls-2"/><path d="M136 130.65s-18.46 14.16-60.31-7c0 0-13.42-6.53-23.19-28.77-.39 1-9.38 108.57 46 110.24 0 0 59.71 7.37 73.11-8.24 0 0 33.72-28.26-5.33-60.34m23.24-19.77s13.09 0 17.88-5.13c0 0-7.25 14-18.34 13.31 0 0 14.24-.31 18.34-3.73 0 0-2.9 11-21.13 12.37" class="cls-2"/></svg>