<svg xmlns="http://www.w3.org/2000/svg" id="Layer_1" viewBox="0 0 32 32" width="32" height="32"><defs><style>.cls-1{fill:#fff}.cls-2{fill:#ffde17}</style></defs><circle cx="21.39" cy="12.41" r="4.77" class="cls-1" transform="rotate(-3.4 21.382 12.438)"/><path d="M18.22 14.26s-2.64 2.29-9.11-.51c0 0-2.07-.86-3.74-4.11-.05.15-.44 16.37 7.88 16.13 0 0 9 .57 10.89-1.89 0 0 4.81-4.54-1.34-9m3.33-3.18s2-.12 2.64-.93c0 0-1 2.16-2.63 2.16 0 0 2.13-.17 2.72-.72 0 0-.34 1.68-3.06 2" class="cls-1"/><circle cx="16.16" cy="15.85" r="15.21" class="cls-2" transform="rotate(-3.4 16.223 15.826)"/><circle cx="21.21" cy="12.84" r="4.77" class="cls-1" transform="rotate(-3.4 21.199 12.938)"/><path d="M18 14.69s-2.6 2.31-9.07-.51c0 0-2.07-.86-3.74-4.11-.05.15-.44 16.37 7.88 16.13 0 0 9 .57 10.89-1.89 0 0 4.81-4.54-1.34-9m3.33-3.18s2-.12 2.64-.93c0 0-1 2.16-2.63 2.16 0 0 2.13-.17 2.72-.72 0 0-.34 1.68-3.06 2" class="cls-1"/></svg>