<svg xmlns="http://www.w3.org/2000/svg" id="Layer_1" viewBox="0 0 16 16" width="16" height="16"><defs><style>.cls-1{fill:#fff}.cls-2{fill:#ffde17}</style></defs><circle cx="10.09" cy="6.52" r="2.12" class="cls-1" transform="rotate(-3.4 10.092 6.538)"/><path d="M8.68 7.35s-1.17 1-4-.23A3.83 3.83 0 0 1 3 5.29c0 .07-.19 7.27 3.5 7.16 0 0 4 .25 4.84-.84 0 0 2.13-2-.59-4m1.44-1.4s.87-.05 1.17-.41c0 0-.43 1-1.17 1a3 3 0 0 0 1.21-.32s-.15.75-1.36.91" class="cls-1"/><circle cx="7.76" cy="8.05" r="6.75" class="cls-2" transform="rotate(-3.4 7.856 7.99)"/><circle cx="10" cy="6.71" r="2.12" class="cls-1" transform="rotate(-3.4 10.087 6.707)"/><path d="M8.6 7.54s-1.17 1-4-.23a3.83 3.83 0 0 1-1.71-1.83c0 .07-.19 7.27 3.5 7.16 0 0 4 .25 4.84-.84 0 0 2.13-2-.59-4m1.47-1.4s.89-.05 1.17-.4c0 0-.43 1-1.17 1a3 3 0 0 0 1.21-.32s-.15.75-1.36.91" class="cls-1"/></svg>