<svg xmlns="http://www.w3.org/2000/svg" id="Layer_1" viewBox="0 0 64 64" width="64" height="64"><defs><style>.cls-1{fill:#fff}.cls-2{fill:#ffde17}</style></defs><circle cx="42.54" cy="25.86" r="9.02" class="cls-1"/><path d="M36.35 29s-5.25 4-17.14-2c0 0-3.81-1.86-6.59-8.18-.11.28-2.67 30.86 13.07 31.33 0 0 17 2.09 20.78-2.34 0 0 9.58-8-1.51-17.15m6.6-5.6s3.72 0 5.08-1.46c0 0-2.06 4-5.21 3.78 0 0 4-.09 5.21-1.06 0 0-.83 3.14-6 3.52" class="cls-1"/><circle cx="32.29" cy="31.76" r="28.76" class="cls-2"/><circle cx="42.14" cy="26.65" r="9.02" class="cls-1"/><path d="M36 29.8s-5.25 4-17.14-2c0 0-3.81-1.86-6.59-8.18-.11.28-2.67 30.86 13.07 31.33 0 0 17 2.09 20.78-2.34 0 0 9.58-8-1.51-17.15m6.56-5.61s3.72 0 5.08-1.46c0 0-2.06 4-5.21 3.78 0 0 4-.09 5.21-1.06 0 0-.83 3.14-6 3.52" class="cls-1"/></svg>